<svg width="1000" height="1000" viewBox="0 0 1000 1000" fill="none" xmlns="http://www.w3.org/2000/svg">
<path d="M520.094 651.379L384.712 304.124C375.686 281.138 370.763 258.972 370.763 242.554C370.763 231.882 371.584 222.851 374.045 218.747V213H245.227L283.791 303.303L168.101 643.991C138.563 730.189 98.3584 777.803 68 777.803V787.654H204.202V777.803C180.408 777.803 166.46 751.533 166.46 708.024C166.46 688.321 173.844 663.693 180.408 641.528L183.69 630.856H412.609L422.455 659.588C432.301 688.321 439.685 714.591 439.685 732.652C439.685 759.742 429.019 777.803 410.968 777.803V787.654H602.144V777.803C579.99 777.803 551.273 730.189 520.094 651.379ZM187.793 621.004L290.355 313.154L407.686 621.004H187.793Z" fill="#73BFBF"/>
<path d="M524.854 777.803V787.654H816.13C910.488 784.37 931 726.084 931 625.109C931 550.404 911.308 499.506 816.951 482.267C889.975 460.922 898.18 414.95 898.18 355.022C898.18 263.898 894.078 213 768.542 213H519.111V222.851C550.289 222.851 567.52 247.479 567.52 290.989V745.787C559.315 766.31 544.546 777.803 524.854 777.803ZM664.339 761.384V486.371H719.312C828.438 486.371 840.745 540.553 840.745 638.244C840.745 727.726 830.899 761.384 725.055 761.384H664.339ZM664.339 476.52V222.851H719.312C812.848 222.851 799.721 268.824 799.721 351.738C799.721 431.369 809.566 476.52 708.645 476.52H664.339Z" fill="#73BFBF"/>
<path d="M374.045 218.747C371.584 222.851 370.763 231.882 370.763 242.554C370.763 258.972 375.686 281.138 384.712 304.124L500.577 601.319L541.89 702.14C547.134 713.24 552.272 723.25 557.281 732.083C578.038 762.592 605.722 761.741 721.951 761.741V787.649H602.144L602.144 787.654H410.968V777.803C429.019 777.803 439.685 759.742 439.685 732.652C439.685 714.591 432.301 688.321 422.455 659.588L416.076 640.976L416.417 640.707C374.856 523.57 330.48 411.499 293.681 321.883L290.355 313.154L290.236 313.506C274.457 275.186 260.169 241.208 248.226 213L374.045 213V218.747Z" fill="#042940"/>
</svg>
